<mxfile host="app.diagrams.net" modified="2021-01-08T19:47:41.855Z" agent="5.0 (Windows NT 10.0; Win64; x64) AppleWebKit/537.36 (KHTML, like Gecko) Chrome/87.0.4280.88 Safari/537.36" etag="l-eCacCFNzphR-e0rKBG" version="14.1.8" type="github">
  <diagram id="TQzkLVB_NJQeoAQOEsyT" name="Page-1">
    <mxGraphModel dx="1038" dy="548" grid="1" gridSize="10" guides="1" tooltips="1" connect="1" arrows="1" fold="1" page="1" pageScale="1" pageWidth="827" pageHeight="1169" math="0" shadow="0">
      <root>
        <mxCell id="0" />
        <mxCell id="1" parent="0" />
        <mxCell id="mcpi6OaUMQ9-C4WgAOcv-1" value="&lt;font style=&quot;font-size: 36px&quot;&gt;VOYAGE&lt;/font&gt;" style="ellipse;whiteSpace=wrap;html=1;aspect=fixed;" vertex="1" parent="1">
          <mxGeometry x="324" y="200" width="180" height="180" as="geometry" />
        </mxCell>
        <mxCell id="mcpi6OaUMQ9-C4WgAOcv-2" value="&lt;font style=&quot;font-size: 14px&quot;&gt;View and book Hotels&lt;/font&gt;" style="rounded=0;whiteSpace=wrap;html=1;" vertex="1" parent="1">
          <mxGeometry x="324" y="20" width="160" height="70" as="geometry" />
        </mxCell>
        <mxCell id="mcpi6OaUMQ9-C4WgAOcv-3" value="&lt;font style=&quot;font-size: 14px&quot;&gt;Search for hotels,destinations and packages&lt;/font&gt;" style="rounded=0;whiteSpace=wrap;html=1;" vertex="1" parent="1">
          <mxGeometry x="40" y="160" width="160" height="60" as="geometry" />
        </mxCell>
        <mxCell id="mcpi6OaUMQ9-C4WgAOcv-5" value="" style="endArrow=classic;startArrow=classic;html=1;" edge="1" parent="1">
          <mxGeometry width="50" height="50" relative="1" as="geometry">
            <mxPoint x="414" y="200" as="sourcePoint" />
            <mxPoint x="414" y="90" as="targetPoint" />
            <Array as="points">
              <mxPoint x="414" y="130" />
            </Array>
          </mxGeometry>
        </mxCell>
        <mxCell id="mcpi6OaUMQ9-C4WgAOcv-6" value="" style="endArrow=classic;startArrow=classic;html=1;exitX=0.078;exitY=0.239;exitDx=0;exitDy=0;exitPerimeter=0;entryX=1;entryY=0.5;entryDx=0;entryDy=0;" edge="1" parent="1" source="mcpi6OaUMQ9-C4WgAOcv-1" target="mcpi6OaUMQ9-C4WgAOcv-3">
          <mxGeometry width="50" height="50" relative="1" as="geometry">
            <mxPoint x="390" y="270" as="sourcePoint" />
            <mxPoint x="223" y="190" as="targetPoint" />
          </mxGeometry>
        </mxCell>
        <mxCell id="mcpi6OaUMQ9-C4WgAOcv-8" value="" style="endArrow=classic;startArrow=classic;html=1;exitX=1.008;exitY=0.37;exitDx=0;exitDy=0;entryX=0.02;entryY=0.599;entryDx=0;entryDy=0;entryPerimeter=0;exitPerimeter=0;" edge="1" parent="1" source="mcpi6OaUMQ9-C4WgAOcv-9" target="mcpi6OaUMQ9-C4WgAOcv-1">
          <mxGeometry width="50" height="50" relative="1" as="geometry">
            <mxPoint x="190" y="410" as="sourcePoint" />
            <mxPoint x="440" y="210" as="targetPoint" />
          </mxGeometry>
        </mxCell>
        <mxCell id="mcpi6OaUMQ9-C4WgAOcv-9" value="&lt;font style=&quot;font-size: 14px&quot;&gt;View and book flights&lt;/font&gt;" style="rounded=0;whiteSpace=wrap;html=1;" vertex="1" parent="1">
          <mxGeometry x="40" y="380" width="160" height="60" as="geometry" />
        </mxCell>
        <mxCell id="mcpi6OaUMQ9-C4WgAOcv-10" value="&lt;font style=&quot;font-size: 14px&quot;&gt;Provide Testimonials&lt;/font&gt;" style="rounded=0;whiteSpace=wrap;html=1;" vertex="1" parent="1">
          <mxGeometry x="600" y="160" width="160" height="60" as="geometry" />
        </mxCell>
        <mxCell id="mcpi6OaUMQ9-C4WgAOcv-11" value="" style="endArrow=classic;startArrow=classic;html=1;entryX=0;entryY=0.5;entryDx=0;entryDy=0;" edge="1" parent="1" target="mcpi6OaUMQ9-C4WgAOcv-10">
          <mxGeometry width="50" height="50" relative="1" as="geometry">
            <mxPoint x="480" y="230" as="sourcePoint" />
            <mxPoint x="440" y="210" as="targetPoint" />
          </mxGeometry>
        </mxCell>
        <mxCell id="mcpi6OaUMQ9-C4WgAOcv-12" value="&lt;font style=&quot;font-size: 18px&quot;&gt;Payment&lt;/font&gt;" style="rounded=0;whiteSpace=wrap;html=1;" vertex="1" parent="1">
          <mxGeometry x="600" y="380" width="170" height="60" as="geometry" />
        </mxCell>
        <mxCell id="mcpi6OaUMQ9-C4WgAOcv-13" value="" style="endArrow=classic;startArrow=classic;html=1;entryX=0;entryY=0.5;entryDx=0;entryDy=0;" edge="1" parent="1" source="mcpi6OaUMQ9-C4WgAOcv-1" target="mcpi6OaUMQ9-C4WgAOcv-12">
          <mxGeometry width="50" height="50" relative="1" as="geometry">
            <mxPoint x="500" y="330" as="sourcePoint" />
            <mxPoint x="440" y="200" as="targetPoint" />
          </mxGeometry>
        </mxCell>
      </root>
    </mxGraphModel>
  </diagram>
</mxfile>
